<mxfile host="app.diagrams.net" modified="2023-02-23T10:11:40.925Z" agent="5.0 (Macintosh; Intel Mac OS X 10_15_7) AppleWebKit/605.1.15 (KHTML, like Gecko) Version/15.2 Safari/605.1.15" etag="H3DANw3t-qQDZu30zA5z" version="20.8.22" type="github">
  <diagram name="第1頁" id="IL3iJkp3xKeJsIAu66Rl">
    <mxGraphModel dx="838" dy="564" grid="1" gridSize="10" guides="1" tooltips="1" connect="1" arrows="1" fold="1" page="1" pageScale="1" pageWidth="827" pageHeight="1169" math="0" shadow="0">
      <root>
        <mxCell id="0" />
        <mxCell id="1" parent="0" />
        <mxCell id="zkDPbRPJDWIZ1ej-2Ygc-2" value="User Input" style="rounded=0;whiteSpace=wrap;html=1;" parent="1" vertex="1">
          <mxGeometry x="70" y="390" width="120" height="60" as="geometry" />
        </mxCell>
        <mxCell id="zkDPbRPJDWIZ1ej-2Ygc-3" value="display on &lt;br&gt;the buzz page" style="shape=card;whiteSpace=wrap;html=1;" parent="1" vertex="1">
          <mxGeometry x="570" y="380" width="130" height="80" as="geometry" />
        </mxCell>
        <mxCell id="zkDPbRPJDWIZ1ej-2Ygc-8" style="edgeStyle=orthogonalEdgeStyle;rounded=0;orthogonalLoop=1;jettySize=auto;html=1;exitX=0;exitY=0;exitDx=0;exitDy=0;" parent="1" source="zkDPbRPJDWIZ1ej-2Ygc-4" edge="1">
          <mxGeometry relative="1" as="geometry">
            <mxPoint x="320" y="320" as="targetPoint" />
          </mxGeometry>
        </mxCell>
        <mxCell id="zkDPbRPJDWIZ1ej-2Ygc-15" style="edgeStyle=orthogonalEdgeStyle;rounded=0;orthogonalLoop=1;jettySize=auto;html=1;exitX=1;exitY=0;exitDx=0;exitDy=0;entryX=0.5;entryY=1;entryDx=0;entryDy=0;" parent="1" source="zkDPbRPJDWIZ1ej-2Ygc-4" target="zkDPbRPJDWIZ1ej-2Ygc-14" edge="1">
          <mxGeometry relative="1" as="geometry">
            <Array as="points">
              <mxPoint x="480" y="392" />
            </Array>
          </mxGeometry>
        </mxCell>
        <mxCell id="zkDPbRPJDWIZ1ej-2Ygc-4" value="Follow" style="ellipse;whiteSpace=wrap;html=1;aspect=fixed;" parent="1" vertex="1">
          <mxGeometry x="360" y="380" width="80" height="80" as="geometry" />
        </mxCell>
        <mxCell id="zkDPbRPJDWIZ1ej-2Ygc-5" value="" style="endArrow=classic;html=1;rounded=0;exitX=1;exitY=0.5;exitDx=0;exitDy=0;entryX=0;entryY=0.5;entryDx=0;entryDy=0;" parent="1" source="zkDPbRPJDWIZ1ej-2Ygc-2" target="zkDPbRPJDWIZ1ej-2Ygc-4" edge="1">
          <mxGeometry width="50" height="50" relative="1" as="geometry">
            <mxPoint x="410" y="470" as="sourcePoint" />
            <mxPoint x="460" y="420" as="targetPoint" />
          </mxGeometry>
        </mxCell>
        <mxCell id="zkDPbRPJDWIZ1ej-2Ygc-6" value="" style="endArrow=classic;html=1;rounded=0;entryX=-0.014;entryY=0.471;entryDx=0;entryDy=0;entryPerimeter=0;" parent="1" source="zkDPbRPJDWIZ1ej-2Ygc-4" target="zkDPbRPJDWIZ1ej-2Ygc-3" edge="1">
          <mxGeometry width="50" height="50" relative="1" as="geometry">
            <mxPoint x="410" y="470" as="sourcePoint" />
            <mxPoint x="460" y="420" as="targetPoint" />
          </mxGeometry>
        </mxCell>
        <mxCell id="zkDPbRPJDWIZ1ej-2Ygc-11" value="&lt;font style=&quot;font-size: 9px;&quot;&gt;User entity - Following List &amp;nbsp;&lt;/font&gt;(database)" style="shape=partialRectangle;whiteSpace=wrap;html=1;left=0;right=0;fillColor=none;rounded=0;strokeColor=default;fontFamily=Helvetica;fontSize=12;fontColor=default;" parent="1" vertex="1">
          <mxGeometry x="260" y="280" width="120" height="40" as="geometry" />
        </mxCell>
        <mxCell id="zkDPbRPJDWIZ1ej-2Ygc-12" value="follow button trigger" style="text;html=1;align=center;verticalAlign=middle;resizable=0;points=[];autosize=1;strokeColor=none;fillColor=none;" parent="1" vertex="1">
          <mxGeometry x="205" y="390" width="130" height="30" as="geometry" />
        </mxCell>
        <mxCell id="zkDPbRPJDWIZ1ej-2Ygc-14" value="&lt;font style=&quot;border-color: var(--border-color); font-size: 9px;&quot;&gt;User entity - Follower List &amp;nbsp;&lt;/font&gt;(database)" style="shape=partialRectangle;whiteSpace=wrap;html=1;left=0;right=0;fillColor=none;rounded=0;strokeColor=default;fontFamily=Helvetica;fontSize=12;fontColor=default;" parent="1" vertex="1">
          <mxGeometry x="420" y="280" width="120" height="40" as="geometry" />
        </mxCell>
        <mxCell id="zkDPbRPJDWIZ1ej-2Ygc-16" value="user id&amp;nbsp;" style="text;html=1;align=center;verticalAlign=middle;resizable=0;points=[];autosize=1;strokeColor=none;fillColor=none;" parent="1" vertex="1">
          <mxGeometry x="414" y="470" width="60" height="30" as="geometry" />
        </mxCell>
        <mxCell id="zkDPbRPJDWIZ1ej-2Ygc-19" style="edgeStyle=orthogonalEdgeStyle;rounded=0;orthogonalLoop=1;jettySize=auto;html=1;" parent="1" source="zkDPbRPJDWIZ1ej-2Ygc-17" target="zkDPbRPJDWIZ1ej-2Ygc-4" edge="1">
          <mxGeometry relative="1" as="geometry" />
        </mxCell>
        <mxCell id="zkDPbRPJDWIZ1ej-2Ygc-17" value="Browser" style="shape=partialRectangle;whiteSpace=wrap;html=1;left=0;right=0;fillColor=none;rounded=0;strokeColor=default;fontFamily=Helvetica;fontSize=12;fontColor=default;" parent="1" vertex="1">
          <mxGeometry x="340" y="510" width="120" height="40" as="geometry" />
        </mxCell>
        <mxCell id="zkDPbRPJDWIZ1ej-2Ygc-20" value="target user id" style="text;html=1;align=center;verticalAlign=middle;resizable=0;points=[];autosize=1;strokeColor=none;fillColor=none;" parent="1" vertex="1">
          <mxGeometry x="225" y="420" width="90" height="30" as="geometry" />
        </mxCell>
        <mxCell id="zkDPbRPJDWIZ1ej-2Ygc-21" value="target user id" style="text;html=1;align=center;verticalAlign=middle;resizable=0;points=[];autosize=1;strokeColor=none;fillColor=none;" parent="1" vertex="1">
          <mxGeometry x="225" y="340" width="90" height="30" as="geometry" />
        </mxCell>
        <mxCell id="zkDPbRPJDWIZ1ej-2Ygc-22" value="user id&amp;nbsp;" style="text;html=1;align=center;verticalAlign=middle;resizable=0;points=[];autosize=1;strokeColor=none;fillColor=none;" parent="1" vertex="1">
          <mxGeometry x="474" y="340" width="60" height="30" as="geometry" />
        </mxCell>
        <mxCell id="zkDPbRPJDWIZ1ej-2Ygc-23" value="&lt;font style=&quot;font-size: 12px;&quot;&gt;render page trigger&lt;/font&gt;" style="text;html=1;align=center;verticalAlign=middle;resizable=0;points=[];autosize=1;strokeColor=none;fillColor=none;fontSize=9;" parent="1" vertex="1">
          <mxGeometry x="440" y="390" width="130" height="30" as="geometry" />
        </mxCell>
      </root>
    </mxGraphModel>
  </diagram>
</mxfile>
